<svg xmlns="http://www.w3.org/2000/svg" viewBox="25 25 50 50">
  <g fill-rule="evenodd" clip-rule="evenodd">
    <path fill="#fff" d="M0 0h100v100H0V0z"/>
    <path d="M49.3 62.8c.8 0 4.8.1 8.8-.3 2.5-.3 3.3-1.4 3.6-3.7.4-3.9.4-8 .4-8.8 0-.8 0-4.8-.4-8.8-.3-2.3-1-3.3-3.6-3.6-4-.4-8-.4-8.8-.4-.8 0-4.8 0-8.8.4-2.7.3-3.4 1.5-3.6 3.6-.5 4-.4 8.1-.4 8.8 0 .8-.1 4.9.4 8.8.2 2.3 1.1 3.4 3.6 3.7 4 .4 8 .3 8.8.3v3.3c-.8 0-5.9.1-10.5-.5-2.9-.3-4.9-2.8-5.2-5.4-.5-5.2-.5-9.3-.5-10.2 0-.8-.1-5.2.5-10.2.3-2.5 2.3-5.1 5.2-5.4 4.6-.5 9.7-.5 10.5-.5.8 0 5.7-.1 10.4.5 3 .4 5 3 5.2 5.4.5 5.1.4 9.4.4 10.2 0 .8.2 4.9-.4 10.2-.3 2.7-2.4 5.2-5.2 5.4-4.6.5-9.6.5-10.4.5v-3.3z" fill="#00acec"/>
    <path d="M52.2 39.6l.2 4.4h6.5c.1 0 .3.1.5 0 .3 7 0 9.1-.1 13.6l-3 .2c.1-2 .1-3.7.1-4.7h-1.1-.2l-.1-4.2h-2.5l.4 11.9c-2.9.1-4.6.1-7.2 0l.4-11.9h-2.5l-.2 4.2h-1.3c0 1 .1 2.7.2 4.7l-3-.2c-.2-4.5-.4-6.6-.1-13.6.3.1.4 0 .5 0h6.2l.1-2.4-2.5.1c.1-.2.1-.3.1-.4l.1-1.6c0-.2 0-.3-.1-.5 3-.1 5-.2 8.3 0v.4z" fill="#00acec"/>
  </g>
</svg>
