<?xml version="1.0" encoding="UTF-8"?>
<svg id="Layer_1" data-name="Layer 1" xmlns="http://www.w3.org/2000/svg" xmlns:xlink="http://www.w3.org/1999/xlink" viewBox="0 0 32 32">
  <defs>
    <style>
      .cls-1 {
        fill: #fff;
      }

      .cls-2 {
        fill: url(#linear-gradient);
      }
    </style>
    <linearGradient id="linear-gradient" x1=".68" y1="32.97" x2="34.73" y2="-4.86" gradientUnits="userSpaceOnUse">
      <stop offset=".07" stop-color="#4f46e5"/>
      <stop offset=".91" stop-color="#6c9cff"/>
    </linearGradient>
  </defs>
  <rect class="cls-2" y=".04" width="31.92" height="31.92" rx="4.19" ry="4.19"/>
  <g>
    <g>
      <path class="cls-1" d="M9.98,11.34v14.15l-1.97,1.14v-14.15l1.97-1.14h0ZM10.28,10.83l-2.57,1.48v14.83l2.57-1.48v-14.83h0Z"/>
      <polygon class="cls-1" points="12.85 12.31 12.85 24.18 10.28 25.66 10.28 10.83 12.85 12.31"/>
    </g>
    <g>
      <path class="cls-1" d="M21.93,11.34l1.97,1.14v14.15s-1.97-1.14-1.97-1.14v-14.15h0ZM21.63,10.83v14.83s2.57,1.48,2.57,1.48v-14.83s-2.57-1.48-2.57-1.48h0Z"/>
      <polygon class="cls-1" points="19.07 12.31 19.07 24.18 21.63 25.66 21.63 10.83 19.07 12.31"/>
    </g>
    <g>
      <path class="cls-1" d="M16.26,16.1l1.97,1.14v9.39l-1.97-1.14v-9.39h0ZM15.96,15.59v10.08l2.57,1.48v-10.08l-2.57-1.48h0Z"/>
      <polygon class="cls-1" points="13.39 17.07 13.39 24.18 15.96 25.66 15.96 15.59 13.39 17.07"/>
    </g>
    <g>
      <path class="cls-1" d="M15.66,5.36v9.39l-1.97,1.14V6.5l1.97-1.14h0ZM15.96,4.84l-2.57,1.48v10.08l2.57-1.48V4.84h0Z"/>
      <polygon class="cls-1" points="18.53 6.33 18.53 13.44 15.96 14.92 15.96 4.84 18.53 6.33"/>
    </g>
  </g>
</svg>